# Blender 4.2.0
# www.blender.org
mtllib osso.mtl
o Cube
v -5.000000 0.000000 5.025229
v -5.000000 0.000000 -5.000000
v 5.000000 0.000000 5.025229
v 5.000000 0.000000 -5.000000
v -3.333333 0.000000 5.025229
v -1.666666 0.000000 5.025229
v 0.000000 0.000000 5.025229
v 1.666667 0.000000 5.025229
v 3.333333 0.000000 5.025229
v -3.333333 3.705085 5.000000
v -1.666666 3.705085 5.000000
v -3.176203 3.547955 5.091086
v -3.176203 0.005790 5.091086
v -1.823797 0.005790 5.091086
v -1.823797 3.547955 5.091086
v -3.176203 3.547955 5.191347
v -1.823797 3.547955 5.191347
v -1.823797 0.005790 5.191347
v -3.176203 0.005790 5.191347
v -3.333333 3.705085 5.191347
v -1.666666 3.705085 5.191347
v -1.666666 0.000000 5.191347
v -3.333333 0.000000 5.191347
v 3.670683 1.384538 4.999998
v 3.521783 1.533439 5.097908
v 0.674996 1.384538 4.999998
v 0.823897 1.533439 5.097908
v 3.670683 3.402389 4.999998
v 3.521783 3.253488 5.097908
v 0.674996 3.402389 4.999998
v 0.823897 3.253488 5.097908
v 3.670683 1.384538 5.183833
v 0.674996 1.384538 5.183833
v 0.674996 3.402389 5.183833
v 3.670683 3.402389 5.183833
v -4.806461 4.833849 4.806461
v -4.806461 4.833849 -4.806461
v 4.806461 4.833849 4.806461
v 4.806461 4.833849 -4.806461
v -5.000000 4.833849 -5.000000
v -5.000000 4.833849 5.025229
v 5.000000 4.833849 -5.000000
v 5.000000 4.833849 5.025229
v -0.019119 9.632515 -0.019119
v -4.806461 4.845172 -4.806461
v -4.806461 4.845172 4.806461
v -0.019119 9.632515 0.019119
v 0.019119 9.632515 -0.019119
v 4.806461 4.845172 -4.806461
v 0.019119 9.632515 0.019119
v 4.806461 4.845172 4.806461
v 2.106317 3.253488 5.097908
v 2.172840 3.253488 5.097908
v 2.239363 3.253488 5.097908
v 2.106317 1.533704 5.097908
v 2.172840 1.533704 5.097908
v 2.239363 1.533704 5.097908
v 2.172840 3.253488 5.154099
v 2.172840 1.533704 5.154099
v 3.521783 2.466940 5.097908
v 3.521783 2.393464 5.097908
v 3.521783 2.319988 5.097908
v 0.823644 2.466940 5.097908
v 0.823644 2.393464 5.097908
v 0.823644 2.319988 5.097908
v 3.521783 2.393464 5.153219
v 0.823644 2.393464 5.153219
v -5.164551 5.000207 -5.164551
v -5.164551 5.000207 5.164551
v 5.164551 5.000207 -5.164551
v 5.164551 5.000207 5.164551
vn -0.0000 -1.0000 -0.0000
vn -0.0000 -0.0000 1.0000
vn -0.0000 -0.9962 0.0876
vn -1.0000 -0.0000 -0.0000
vn 0.0368 -0.9993 -0.0000
vn -0.0000 1.0000 -0.0000
vn 1.0000 -0.0000 -0.0000
vn -0.0368 -0.9993 -0.0000
vn -0.0000 -0.0000 -1.0000
vn -0.0000 0.4998 0.8661
vn 0.4998 -0.0000 0.8661
vn -0.0000 -0.4998 0.8661
vn -0.4998 -0.0000 0.8661
vn -0.7071 0.7071 -0.0000
vn -0.0000 0.7071 -0.7071
vn 0.7071 0.7071 -0.0000
vn -0.0000 0.7071 0.7071
vn -0.0000 -0.0132 -0.9999
vn 0.6453 -0.0000 -0.7639
vn -0.6453 -0.0000 -0.7639
vn -0.0000 -0.6014 -0.7989
vn -0.0000 0.6014 -0.7989
vn -0.7110 0.7032 -0.0000
vn 0.7110 0.7032 -0.0000
vn -0.0000 0.6421 -0.7667
vn -0.0000 0.7032 0.7110
vt 0.931007 0.064572
vt 0.911951 0.102684
vt 0.905599 0.102684
vt 0.205198 0.920595
vt 0.205198 0.954405
vt 0.205198 0.954405
vt 0.194679 0.948253
vt 0.194679 0.910515
vt 0.194679 0.914443
vt 0.000000 0.000000
vt 0.926762 0.067293
vt 0.926762 0.071221
vt 0.945902 0.037174
vt 0.945902 0.037174
vt 0.911702 0.043959
vt 0.911702 0.081697
vt 0.911702 0.077769
vt 0.911702 0.040031
vt 0.900369 0.070984
vt 0.911443 0.070984
vt 0.945902 0.070984
vt 0.904320 0.066703
vt 0.904320 0.062775
vt 0.933151 0.010120
vt 0.906789 0.036482
vt 0.906789 0.010120
vt 0.920176 0.036482
vt 0.893813 0.062845
vt 0.893813 0.036482
vt 0.940613 0.095697
vt 0.893813 0.089207
vt 0.933151 0.089207
vt 0.906068 0.115570
vt 0.906789 0.089207
vt 0.251953 0.500000
vt 0.001953 0.750000
vt 0.001953 0.500000
vt 0.703026 0.813282
vt 0.683505 0.854531
vt 0.663984 0.844218
vt 0.956921 0.046794
vt 0.959311 0.077950
vt 0.956921 0.075961
vt 0.929314 0.046794
vt 0.959311 0.045564
vt 0.929314 0.068669
vt 0.929314 0.075961
vt 0.926925 0.045564
vt 0.950019 0.075961
vt 0.926925 0.077950
vt 0.073061 0.925206
vt 0.049707 0.973518
vt 0.049707 0.925206
vt 0.086445 0.902371
vt 0.063392 0.950060
vt 0.063392 0.902371
vt 0.072864 0.912541
vt 0.049905 0.960037
vt 0.049905 0.912541
vt 0.082732 0.891931
vt 0.044330 0.950285
vt 0.045584 0.938558
vt 0.495846 0.501726
vt 0.495846 0.748274
vt 0.495846 0.748274
vt 0.322737 0.954417
vt 0.322737 0.930115
vt 0.322737 0.955002
vt 0.322737 0.938468
vt 0.322737 0.930700
vt 0.322737 0.946649
vt 0.322737 0.938411
vt 0.299830 0.949460
vt 0.299830 0.918075
vt 0.299830 0.917841
vt 0.495846 0.267628
vt 0.495846 0.501726
vt 0.495846 0.982372
vt 0.495846 0.982372
vt 0.659486 0.834619
vt 0.659486 0.834269
vt 0.659486 0.834268
vt 0.704927 0.853662
vt 0.705629 0.816843
vt 0.705629 0.780220
vt 0.659486 0.768971
vt 0.659486 0.811859
vt 0.659486 0.834618
vt 0.659486 0.857028
vt 0.705629 0.829608
vt 0.705629 0.817040
vt 0.704927 0.853662
vt 0.495846 0.267628
vt 0.643448 0.681287
vt 0.643448 0.625000
vt 0.643448 0.568713
vt 0.856552 0.737574
vt 0.856552 0.512426
vt 0.935269 0.042293
vt 0.935269 0.031981
vt 0.935269 0.031444
vt 0.935269 0.052605
vt 0.935269 0.052068
vt 0.706048 0.855067
vt 0.715808 0.855067
vt 0.696288 0.855067
vt 0.945029 0.062380
vt 0.954790 0.062917
vt 0.945029 0.062917
vt 0.964550 0.062917
vt 0.964550 0.062380
vt 0.322737 0.946707
vt 0.322737 0.921819
vt 0.308373 0.950800
vt 0.318665 0.928590
vt 0.308373 0.929568
vt 0.892895 0.102684
vt 0.892895 0.064572
vt 0.931007 0.102684
vt 0.924655 0.102684
vt 0.918303 0.102684
vt 0.899247 0.102684
vt 0.179360 0.920595
vt 0.194679 0.952181
vt 0.911702 0.043959
vt 0.911443 0.070984
vt 0.902393 0.065120
vt 0.933151 0.036482
vt 0.940613 0.100527
vt 0.933151 0.115570
vt 0.251953 0.750000
vt 0.663984 0.823594
vt 0.663984 0.813282
vt 0.703026 0.854531
vt 0.693266 0.854531
vt 0.673745 0.854531
vt 0.663984 0.854531
vt 0.663984 0.833906
vt 0.929314 0.054086
vt 0.929314 0.061378
vt 0.936216 0.075961
vt 0.943118 0.075961
vt 0.073061 0.973518
vt 0.086445 0.950060
vt 0.072864 0.960037
vt 0.045584 0.912683
vt 0.045584 0.899746
vt 0.082732 0.945041
vt 0.045584 0.977370
vt 0.045584 0.964433
vt 0.045584 0.925621
vt 0.495846 0.501726
vt 0.299830 0.951840
vt 0.495846 0.267628
vt 0.495846 0.748274
vt 0.705629 0.817039
vt 0.495846 0.982372
vt 0.318665 0.949234
s 0
usemtl Material.001
f 4/1/1 7/2/1 6/3/1
f 14/4/2 12/5/2 13/6/2
f 13/7/3 6/8/3 14/9/3
f 5/10/4 20/10/4 10/10/4
f 13/11/5 23/12/5 5/12/5
f 14/13/4 17/14/4 15/14/4
f 17/15/2 20/16/2 16/17/2
f 17/15/2 22/18/2 21/18/2
f 16/17/2 23/16/2 19/17/2
f 10/10/6 21/10/6 11/10/6
f 12/19/7 19/20/7 13/19/7
f 15/14/1 16/21/1 12/21/1
f 14/22/8 22/23/8 18/22/8
f 6/10/7 21/10/7 22/10/7
f 32/24/1 26/25/1 24/26/1
f 33/27/4 30/28/4 26/29/4
f 34/30/6 28/31/6 30/28/6
f 35/32/7 24/33/7 28/34/7
f 30/35/9 24/36/9 26/37/9
f 27/38/2 61/39/2 54/40/2
f 27/41/10 32/42/10 25/43/10
f 31/44/11 33/45/11 27/41/11
f 54/46/12 29/47/12 34/48/12
f 62/49/13 25/43/13 35/50/13
f 41/51/4 2/52/4 1/53/4
f 40/54/9 4/55/9 2/56/9
f 42/57/7 3/58/7 4/59/7
f 43/60/2 6/61/2 7/62/2
f 39/63/7 51/64/7 38/65/7
f 36/66/6 40/67/6 41/68/6
f 39/69/6 40/67/6 37/70/6
f 38/71/6 42/72/6 39/69/6
f 36/73/6 43/74/6 38/75/6
f 37/76/9 49/77/9 39/63/9
f 38/65/2 46/78/2 36/79/2
f 47/80/6 48/81/6 44/82/6
f 46/83/14 44/84/14 45/85/14
f 45/86/15 48/81/15 49/87/15
f 49/87/16 50/88/16 51/89/16
f 51/90/17 47/91/17 46/92/17
f 36/79/4 45/93/4 37/76/4
f 54/94/9 56/95/9 53/95/9
f 52/96/2 56/95/2 53/95/2
f 25/97/18 56/95/18 57/94/18
f 27/98/9 56/95/9 25/97/9
f 27/98/18 55/96/18 56/95/18
f 56/95/4 58/95/4 53/95/4
f 58/99/19 55/100/19 52/101/19
f 57/102/20 58/99/20 54/103/20
f 53/10/6 58/10/6 54/10/6
f 58/10/1 52/10/1 53/10/1
f 57/10/6 56/10/6 59/10/6
f 56/10/6 55/10/6 59/10/6
f 61/104/2 65/105/2 62/105/2
f 60/106/2 64/104/2 61/104/2
f 64/104/6 66/104/6 61/104/6
f 60/107/21 67/108/21 63/109/21
f 65/110/22 66/108/22 62/111/22
f 65/105/7 64/104/7 67/104/7
f 63/10/7 67/10/7 64/10/7
f 66/10/4 60/10/4 61/10/4
f 66/10/4 61/10/4 62/10/4
f 42/72/23 71/112/23 70/72/23
f 40/67/24 69/113/24 41/113/24
f 41/114/25 71/115/25 43/116/25
f 42/72/26 68/67/26 40/67/26
f 1/117/1 2/118/1 4/1/1
f 4/1/1 3/119/1 9/120/1
f 4/1/1 9/120/1 8/121/1
f 5/122/1 1/117/1 4/1/1
f 6/3/1 5/122/1 4/1/1
f 4/1/1 8/121/1 7/2/1
f 14/4/2 15/123/2 12/5/2
f 13/7/3 5/124/3 6/8/3
f 5/10/4 23/10/4 20/10/4
f 13/11/5 19/11/5 23/12/5
f 14/13/4 18/13/4 17/14/4
f 17/15/2 21/18/2 20/16/2
f 17/15/2 18/125/2 22/18/2
f 16/17/2 20/16/2 23/16/2
f 10/10/6 20/10/6 21/10/6
f 12/19/7 16/126/7 19/20/7
f 15/14/1 17/14/1 16/21/1
f 14/22/8 6/127/8 22/23/8
f 6/10/7 11/10/7 21/10/7
f 32/24/1 33/128/1 26/25/1
f 33/27/4 34/30/4 30/28/4
f 34/30/6 35/129/6 28/31/6
f 35/32/7 32/130/7 24/33/7
f 30/35/9 28/131/9 24/36/9
f 52/132/2 31/133/2 27/38/2
f 27/38/2 25/134/2 62/135/2
f 61/39/4 60/136/4 29/137/4
f 27/38/2 62/135/2 61/39/2
f 53/138/2 52/132/2 27/38/2
f 61/39/2 29/137/2 54/40/2
f 54/40/2 53/138/2 27/38/2
f 27/41/10 33/45/10 32/42/10
f 31/44/11 34/48/11 33/45/11
f 34/48/12 31/44/12 52/139/12
f 34/48/12 52/139/12 53/140/12
f 29/47/12 35/50/12 34/48/12
f 34/48/12 53/140/12 54/46/12
f 35/50/13 29/47/13 60/141/13
f 35/50/13 60/141/13 61/142/13
f 25/43/13 32/42/13 35/50/13
f 35/50/13 61/142/13 62/49/13
f 41/51/4 40/143/4 2/52/4
f 40/54/9 42/144/9 4/55/9
f 42/57/7 43/145/7 3/58/7
f 9/146/2 3/147/2 43/60/2
f 43/60/2 41/148/2 1/149/2
f 43/60/2 1/149/2 5/150/2
f 8/151/2 9/146/2 43/60/2
f 7/62/2 8/151/2 43/60/2
f 43/60/2 5/150/2 6/61/2
f 39/63/7 49/152/7 51/64/7
f 36/66/6 37/70/6 40/67/6
f 39/69/6 42/72/6 40/67/6
f 38/71/6 43/112/6 42/72/6
f 36/73/6 41/153/6 43/74/6
f 37/76/9 45/154/9 49/77/9
f 38/65/2 51/155/2 46/78/2
f 47/80/6 50/88/6 48/81/6
f 46/83/14 47/91/14 44/84/14
f 45/86/15 44/82/15 48/81/15
f 49/87/16 48/81/16 50/88/16
f 51/90/17 50/156/17 47/91/17
f 36/79/4 46/157/4 45/93/4
f 54/94/9 57/94/9 56/95/9
f 52/96/2 55/96/2 56/95/2
f 56/95/4 59/95/4 58/95/4
f 58/99/19 59/99/19 55/100/19
f 57/102/20 59/99/20 58/99/20
f 61/104/2 64/104/2 65/105/2
f 60/106/2 63/106/2 64/104/2
f 64/104/6 67/104/6 66/104/6
f 60/107/21 66/108/21 67/108/21
f 65/110/22 67/108/22 66/108/22
f 42/72/23 43/112/23 71/112/23
f 40/67/24 68/67/24 69/113/24
f 41/114/25 69/158/25 71/115/25
f 42/72/26 70/72/26 68/67/26
