# Blender 4.2.0
# www.blender.org
mtllib plateau.mtl
o Cylinder
v 0.000000 -0.250000 -6.000000
v 0.000000 0.250000 -6.000000
v 1.170542 -0.250000 -5.884711
v 1.170542 0.250000 -5.884711
v 2.296101 -0.250000 -5.543277
v 2.296101 0.250000 -5.543277
v 3.333421 -0.250000 -4.988818
v 3.333421 0.250000 -4.988818
v 4.242640 -0.250000 -4.242640
v 4.242640 0.250000 -4.242640
v 4.988818 -0.250000 -3.333421
v 4.988818 0.250000 -3.333421
v 5.543277 -0.250000 -2.296101
v 5.543277 0.250000 -2.296101
v 5.884711 -0.250000 -1.170542
v 5.884711 0.250000 -1.170542
v 6.000000 -0.250000 0.000000
v 6.000000 0.250000 0.000000
v 5.884711 -0.250000 1.170542
v 5.884711 0.250000 1.170542
v 5.543277 -0.250000 2.296101
v 5.543277 0.250000 2.296101
v 4.988818 -0.250000 3.333421
v 4.988818 0.250000 3.333421
v 4.242640 -0.250000 4.242640
v 4.242640 0.250000 4.242640
v 3.333421 -0.250000 4.988818
v 3.333421 0.250000 4.988818
v 2.296101 -0.250000 5.543277
v 2.296101 0.250000 5.543277
v 1.170542 -0.250000 5.884711
v 1.170542 0.250000 5.884711
v 0.000000 -0.250000 6.000000
v 0.000000 0.250000 6.000000
v -1.170542 -0.250000 5.884711
v -1.170542 0.250000 5.884711
v -2.296101 -0.250000 5.543277
v -2.296101 0.250000 5.543277
v -3.333421 -0.250000 4.988818
v -3.333421 0.250000 4.988818
v -4.242640 -0.250000 4.242640
v -4.242640 0.250000 4.242640
v -4.988818 -0.250000 3.333421
v -4.988818 0.250000 3.333421
v -5.543277 -0.250000 2.296101
v -5.543277 0.250000 2.296101
v -5.884711 -0.250000 1.170542
v -5.884711 0.250000 1.170542
v -6.000000 -0.250000 0.000000
v -6.000000 0.250000 0.000000
v -5.884711 -0.250000 -1.170542
v -5.884711 0.250000 -1.170542
v -5.543277 -0.250000 -2.296101
v -5.543277 0.250000 -2.296101
v -4.988818 -0.250000 -3.333421
v -4.988818 0.250000 -3.333421
v -4.242640 -0.250000 -4.242640
v -4.242640 0.250000 -4.242640
v -3.333421 -0.250000 -4.988818
v -3.333421 0.250000 -4.988818
v -2.296101 -0.250000 -5.543277
v -2.296101 0.250000 -5.543277
v -1.170542 -0.250000 -5.884711
v -1.170542 0.250000 -5.884711
v 0.000000 0.250000 -5.205723
v 1.015586 0.250000 -5.105696
v 1.992144 0.250000 -4.809461
v 2.892145 0.250000 -4.328400
v 3.681002 0.250000 -3.681002
v 4.328400 0.250000 -2.892145
v 4.809461 0.250000 -1.992144
v 5.105696 0.250000 -1.015586
v 5.205723 0.250000 0.000000
v 5.105696 0.250000 1.015586
v 4.809461 0.250000 1.992144
v 4.328400 0.250000 2.892145
v 3.681002 0.250000 3.681002
v 2.892145 0.250000 4.328400
v 1.992144 0.250000 4.809461
v 1.015586 0.250000 5.105696
v 0.000000 0.250000 5.205723
v -1.015586 0.250000 5.105696
v -1.992144 0.250000 4.809461
v -2.892145 0.250000 4.328400
v -3.681002 0.250000 3.681002
v -4.328400 0.250000 2.892145
v -4.809461 0.250000 1.992144
v -5.105696 0.250000 1.015586
v -5.205723 0.250000 0.000000
v -5.105696 0.250000 -1.015586
v -4.809461 0.250000 -1.992144
v -4.328400 0.250000 -2.892145
v -3.681002 0.250000 -3.681002
v -2.892145 0.250000 -4.328400
v -1.992144 0.250000 -4.809461
v -1.015586 0.250000 -5.105696
v 1.170542 0.250000 -5.884711
v 0.000000 0.250000 -6.000000
v 2.296101 0.250000 -5.543277
v 3.333421 0.250000 -4.988818
v 4.242640 0.250000 -4.242640
v 4.988818 0.250000 -3.333421
v 5.543277 0.250000 -2.296101
v 5.884711 0.250000 -1.170542
v 6.000000 0.250000 0.000000
v 5.884711 0.250000 1.170542
v 5.543277 0.250000 2.296101
v 4.988818 0.250000 3.333421
v 4.242640 0.250000 4.242640
v 3.333421 0.250000 4.988818
v 2.296101 0.250000 5.543277
v 1.170542 0.250000 5.884711
v 0.000000 0.250000 6.000000
v -1.170542 0.250000 5.884711
v -2.296101 0.250000 5.543277
v -3.333421 0.250000 4.988818
v -4.242640 0.250000 4.242640
v -4.988818 0.250000 3.333421
v -5.543277 0.250000 2.296101
v -5.884711 0.250000 1.170542
v -6.000000 0.250000 0.000000
v -5.884711 0.250000 -1.170542
v -5.543277 0.250000 -2.296101
v -4.988818 0.250000 -3.333421
v -4.242640 0.250000 -4.242640
v -3.333421 0.250000 -4.988818
v -2.296101 0.250000 -5.543277
v -1.170542 0.250000 -5.884711
v -0.000000 0.725864 -5.205723
v 1.015586 0.725864 -5.105696
v 1.992144 0.725864 -4.809461
v 2.892145 0.725864 -4.328400
v 3.681002 0.725864 -3.681002
v 4.328400 0.725864 -2.892145
v 4.809461 0.725864 -1.992144
v 5.105696 0.725864 -1.015586
v 5.205723 0.725864 0.000000
v 5.105696 0.725864 1.015586
v 4.809461 0.725864 1.992144
v 4.328400 0.725864 2.892145
v 3.681002 0.725864 3.681002
v 2.892145 0.725864 4.328400
v 1.992144 0.725864 4.809461
v 1.015586 0.725864 5.105696
v -0.000000 0.725864 5.205723
v -1.015586 0.725864 5.105696
v -1.992144 0.725864 4.809461
v -2.892145 0.725864 4.328400
v -3.681002 0.725864 3.681002
v -4.328400 0.725864 2.892145
v -4.809461 0.725864 1.992144
v -5.105696 0.725864 1.015586
v -5.205723 0.725864 0.000000
v -5.105696 0.725864 -1.015586
v -4.809461 0.725864 -1.992144
v -4.328400 0.725864 -2.892145
v -3.681002 0.725864 -3.681002
v -2.892145 0.725864 -4.328400
v -1.992144 0.725864 -4.809461
v -1.015586 0.725864 -5.105696
vn 0.0980 -0.0000 -0.9952
vn 0.2903 -0.0000 -0.9569
vn 0.4714 -0.0000 -0.8819
vn 0.6344 -0.0000 -0.7730
vn 0.7730 -0.0000 -0.6344
vn 0.8819 -0.0000 -0.4714
vn 0.9569 -0.0000 -0.2903
vn 0.9952 -0.0000 -0.0980
vn 0.9952 -0.0000 0.0980
vn 0.9569 -0.0000 0.2903
vn 0.8819 -0.0000 0.4714
vn 0.7730 -0.0000 0.6344
vn 0.6344 -0.0000 0.7730
vn 0.4714 -0.0000 0.8819
vn 0.2903 -0.0000 0.9569
vn 0.0980 -0.0000 0.9952
vn -0.0980 -0.0000 0.9952
vn -0.2903 -0.0000 0.9569
vn -0.4714 -0.0000 0.8819
vn -0.6344 -0.0000 0.7730
vn -0.7730 -0.0000 0.6344
vn -0.8819 -0.0000 0.4714
vn -0.9569 -0.0000 0.2903
vn -0.9952 -0.0000 0.0980
vn -0.9952 -0.0000 -0.0980
vn -0.9569 -0.0000 -0.2903
vn -0.8819 -0.0000 -0.4714
vn -0.7730 -0.0000 -0.6344
vn -0.6344 -0.0000 -0.7730
vn -0.4714 -0.0000 -0.8819
vn -0.0000 1.0000 -0.0000
vn -0.2903 -0.0000 -0.9569
vn -0.0980 -0.0000 -0.9952
vn -0.0000 -1.0000 -0.0000
vt 1.000000 1.000000
vt 0.968750 0.500000
vt 1.000000 0.500000
vt 0.968750 1.000000
vt 0.937500 0.500000
vt 0.937500 1.000000
vt 0.906250 0.500000
vt 0.906250 1.000000
vt 0.875000 0.500000
vt 0.875000 1.000000
vt 0.843750 0.500000
vt 0.843750 1.000000
vt 0.812500 0.500000
vt 0.812500 1.000000
vt 0.781250 0.500000
vt 0.781250 1.000000
vt 0.750000 0.500000
vt 0.750000 1.000000
vt 0.718750 0.500000
vt 0.718750 1.000000
vt 0.687500 0.500000
vt 0.687500 1.000000
vt 0.656250 0.500000
vt 0.656250 1.000000
vt 0.625000 0.500000
vt 0.625000 1.000000
vt 0.593750 0.500000
vt 0.593750 1.000000
vt 0.562500 0.500000
vt 0.562500 1.000000
vt 0.531250 0.500000
vt 0.531250 1.000000
vt 0.500000 0.500000
vt 0.500000 1.000000
vt 0.468750 0.500000
vt 0.468750 1.000000
vt 0.437500 0.500000
vt 0.437500 1.000000
vt 0.406250 0.500000
vt 0.406250 1.000000
vt 0.375000 0.500000
vt 0.375000 1.000000
vt 0.343750 0.500000
vt 0.343750 1.000000
vt 0.312500 0.500000
vt 0.312500 1.000000
vt 0.281250 0.500000
vt 0.281250 1.000000
vt 0.250000 0.500000
vt 0.250000 1.000000
vt 0.218750 0.500000
vt 0.218750 1.000000
vt 0.187500 0.500000
vt 0.187500 1.000000
vt 0.156250 0.500000
vt 0.156250 1.000000
vt 0.125000 0.500000
vt 0.125000 1.000000
vt 0.093750 0.500000
vt 0.093750 1.000000
vt 0.062500 0.500000
vt 0.062500 1.000000
vt 0.031250 0.500000
vt 0.031250 1.000000
vt 0.000000 0.500000
vt 0.796822 0.014612
vt 0.514612 0.203178
vt 0.703178 0.485388
vt 0.458229 0.250000
vt 0.454228 0.209377
vt 0.000000 1.000000
vt 0.250000 0.458229
vt 0.296822 0.485388
vt 0.250000 0.490000
vt 0.329686 0.442378
vt 0.290623 0.454228
vt 0.383337 0.449553
vt 0.341844 0.471731
vt 0.397240 0.397240
vt 0.365686 0.423136
vt 0.449553 0.383337
vt 0.419706 0.419706
vt 0.442378 0.329686
vt 0.423136 0.365686
vt 0.485388 0.296822
vt 0.471731 0.341844
vt 0.454228 0.290623
vt 0.485388 0.203178
vt 0.490000 0.250000
vt 0.442378 0.170314
vt 0.449553 0.116663
vt 0.471731 0.158156
vt 0.397240 0.102760
vt 0.423136 0.134314
vt 0.383337 0.050447
vt 0.419706 0.080294
vt 0.329686 0.057622
vt 0.365686 0.076864
vt 0.296822 0.014612
vt 0.341844 0.028269
vt 0.250000 0.041771
vt 0.290623 0.045772
vt 0.203178 0.014612
vt 0.250000 0.010000
vt 0.170314 0.057622
vt 0.209377 0.045772
vt 0.116663 0.050447
vt 0.158156 0.028269
vt 0.102760 0.102760
vt 0.134314 0.076864
vt 0.050447 0.116663
vt 0.080294 0.080294
vt 0.057622 0.170314
vt 0.076864 0.134314
vt 0.014612 0.203178
vt 0.028269 0.158156
vt 0.041771 0.250000
vt 0.045772 0.209377
vt 0.014612 0.296822
vt 0.010000 0.250000
vt 0.057622 0.329686
vt 0.045772 0.290623
vt 0.050447 0.383337
vt 0.028269 0.341844
vt 0.102760 0.397240
vt 0.076864 0.365686
vt 0.116663 0.449553
vt 0.080294 0.419706
vt 0.170314 0.442378
vt 0.134314 0.423136
vt 0.203178 0.485388
vt 0.158156 0.471731
vt 0.209377 0.454228
vt 0.750000 0.490000
vt 0.796822 0.485388
vt 0.841844 0.471731
vt 0.883337 0.449553
vt 0.919706 0.419706
vt 0.949553 0.383337
vt 0.971731 0.341844
vt 0.985388 0.296822
vt 0.990000 0.250000
vt 0.985388 0.203178
vt 0.971731 0.158156
vt 0.949553 0.116663
vt 0.919706 0.080294
vt 0.883337 0.050447
vt 0.841844 0.028269
vt 0.750000 0.010000
vt 0.703178 0.014612
vt 0.658156 0.028269
vt 0.616663 0.050447
vt 0.580294 0.080294
vt 0.550447 0.116663
vt 0.528269 0.158156
vt 0.510000 0.250000
vt 0.514612 0.296822
vt 0.528269 0.341844
vt 0.550447 0.383337
vt 0.580294 0.419706
vt 0.616663 0.449553
vt 0.658156 0.471731
s 0
f 2/1/1 3/2/1 1/3/1
f 4/4/2 5/5/2 3/2/2
f 6/6/3 7/7/3 5/5/3
f 8/8/4 9/9/4 7/7/4
f 10/10/5 11/11/5 9/9/5
f 12/12/6 13/13/6 11/11/6
f 14/14/7 15/15/7 13/13/7
f 16/16/8 17/17/8 15/15/8
f 18/18/9 19/19/9 17/17/9
f 20/20/10 21/21/10 19/19/10
f 22/22/11 23/23/11 21/21/11
f 24/24/12 25/25/12 23/23/12
f 26/26/13 27/27/13 25/25/13
f 28/28/14 29/29/14 27/27/14
f 30/30/15 31/31/15 29/29/15
f 32/32/16 33/33/16 31/31/16
f 34/34/17 35/35/17 33/33/17
f 36/36/18 37/37/18 35/35/18
f 38/38/19 39/39/19 37/37/19
f 40/40/20 41/41/20 39/39/20
f 42/42/21 43/43/21 41/41/21
f 44/44/22 45/45/22 43/43/22
f 46/46/23 47/47/23 45/45/23
f 48/48/24 49/49/24 47/47/24
f 50/50/25 51/51/25 49/49/25
f 52/52/26 53/53/26 51/51/26
f 54/54/27 55/55/27 53/53/27
f 56/56/28 57/57/28 55/55/28
f 58/58/29 59/59/29 57/57/29
f 60/60/30 61/61/30 59/59/30
f 40/40/31 115/38/31 116/40/31
f 62/62/32 63/63/32 61/61/32
f 64/64/33 1/65/33 63/63/33
f 31/66/34 47/67/34 63/68/34
f 73/69/9 138/70/9 74/70/9
f 58/58/31 124/56/31 125/58/31
f 14/14/31 102/12/31 103/14/31
f 32/32/31 111/30/31 112/32/31
f 50/50/31 120/48/31 121/50/31
f 6/6/31 97/4/31 99/6/31
f 24/24/31 107/22/31 108/24/31
f 42/42/31 116/40/31 117/42/31
f 60/60/31 125/58/31 126/60/31
f 16/16/31 103/14/31 104/16/31
f 34/34/31 112/32/31 113/34/31
f 52/52/31 121/50/31 122/52/31
f 8/8/31 99/6/31 100/8/31
f 26/26/31 108/24/31 109/26/31
f 44/44/31 117/42/31 118/44/31
f 62/62/31 126/60/31 127/62/31
f 18/18/31 104/16/31 105/18/31
f 36/36/31 113/34/31 114/36/31
f 54/54/31 122/52/31 123/54/31
f 10/10/31 100/8/31 101/10/31
f 28/28/31 109/26/31 110/28/31
f 46/46/31 118/44/31 119/46/31
f 64/64/31 127/62/31 128/64/31
f 20/20/31 105/18/31 106/20/31
f 38/38/31 114/36/31 115/38/31
f 56/56/31 123/54/31 124/56/31
f 12/12/31 101/10/31 102/12/31
f 30/30/31 110/28/31 111/30/31
f 48/48/31 119/46/31 120/48/31
f 4/4/31 98/1/31 97/4/31
f 2/71/31 128/64/31 98/71/31
f 22/22/31 106/20/31 107/22/31
f 65/72/31 97/73/31 98/74/31
f 67/75/31 97/73/31 66/76/31
f 67/75/31 100/77/31 99/78/31
f 69/79/31 100/77/31 68/80/31
f 69/79/31 102/81/31 101/82/31
f 71/83/31 102/81/31 70/84/31
f 71/83/31 104/85/31 103/86/31
f 73/69/31 104/85/31 72/87/31
f 73/69/31 106/88/31 105/89/31
f 75/90/31 106/88/31 74/70/31
f 75/90/31 108/91/31 107/92/31
f 77/93/31 108/91/31 76/94/31
f 77/93/31 110/95/31 109/96/31
f 79/97/31 110/95/31 78/98/31
f 79/97/31 112/99/31 111/100/31
f 81/101/31 112/99/31 80/102/31
f 81/101/31 114/103/31 113/104/31
f 83/105/31 114/103/31 82/106/31
f 83/105/31 116/107/31 115/108/31
f 85/109/31 116/107/31 84/110/31
f 85/109/31 118/111/31 117/112/31
f 87/113/31 118/111/31 86/114/31
f 87/113/31 120/115/31 119/116/31
f 89/117/31 120/115/31 88/118/31
f 89/117/31 122/119/31 121/120/31
f 91/121/31 122/119/31 90/122/31
f 91/121/31 124/123/31 123/124/31
f 93/125/31 124/123/31 92/126/31
f 93/125/31 126/127/31 125/128/31
f 95/129/31 126/127/31 94/130/31
f 95/129/31 128/131/31 127/132/31
f 65/72/31 128/131/31 96/133/31
f 147/105/31 139/90/31 131/75/31
f 87/113/23 152/118/23 88/118/23
f 74/70/10 139/90/10 75/90/10
f 88/118/24 153/117/24 89/117/24
f 75/90/11 140/94/11 76/94/11
f 89/117/25 154/122/25 90/122/25
f 76/94/12 141/93/12 77/93/12
f 90/122/26 155/121/26 91/121/26
f 77/93/13 142/98/13 78/98/13
f 91/121/27 156/126/27 92/126/27
f 78/98/14 143/97/14 79/97/14
f 65/72/1 130/76/1 66/76/1
f 92/126/28 157/125/28 93/125/28
f 79/97/15 144/102/15 80/102/15
f 66/76/2 131/75/2 67/75/2
f 93/125/29 158/130/29 94/130/29
f 80/102/16 145/101/16 81/101/16
f 67/75/3 132/80/3 68/80/3
f 94/130/30 159/129/30 95/129/30
f 81/101/17 146/106/17 82/106/17
f 68/80/4 133/79/4 69/79/4
f 95/129/32 160/133/32 96/133/32
f 82/106/18 147/105/18 83/105/18
f 69/79/5 134/84/5 70/84/5
f 96/133/33 129/72/33 65/72/33
f 83/105/19 148/110/19 84/110/19
f 70/84/6 135/83/6 71/83/6
f 84/110/20 149/109/20 85/109/20
f 71/83/7 136/87/7 72/87/7
f 85/109/21 150/114/21 86/114/21
f 72/87/8 137/69/8 73/69/8
f 86/114/22 151/113/22 87/113/22
f 2/1/1 4/4/1 3/2/1
f 4/4/2 6/6/2 5/5/2
f 6/6/3 8/8/3 7/7/3
f 8/8/4 10/10/4 9/9/4
f 10/10/5 12/12/5 11/11/5
f 12/12/6 14/14/6 13/13/6
f 14/14/7 16/16/7 15/15/7
f 16/16/8 18/18/8 17/17/8
f 18/18/9 20/20/9 19/19/9
f 20/20/10 22/22/10 21/21/10
f 22/22/11 24/24/11 23/23/11
f 24/24/12 26/26/12 25/25/12
f 26/26/13 28/28/13 27/27/13
f 28/28/14 30/30/14 29/29/14
f 30/30/15 32/32/15 31/31/15
f 32/32/16 34/34/16 33/33/16
f 34/34/17 36/36/17 35/35/17
f 36/36/18 38/38/18 37/37/18
f 38/38/19 40/40/19 39/39/19
f 40/40/20 42/42/20 41/41/20
f 42/42/21 44/44/21 43/43/21
f 44/44/22 46/46/22 45/45/22
f 46/46/23 48/48/23 47/47/23
f 48/48/24 50/50/24 49/49/24
f 50/50/25 52/52/25 51/51/25
f 52/52/26 54/54/26 53/53/26
f 54/54/27 56/56/27 55/55/27
f 56/56/28 58/58/28 57/57/28
f 58/58/29 60/60/29 59/59/29
f 60/60/30 62/62/30 61/61/30
f 40/40/31 38/38/31 115/38/31
f 62/62/32 64/64/32 63/63/32
f 64/64/33 2/71/33 1/65/33
f 63/68/34 1/134/34 3/135/34
f 3/135/34 5/136/34 7/137/34
f 7/137/34 9/138/34 11/139/34
f 11/139/34 13/140/34 15/141/34
f 15/141/34 17/142/34 19/143/34
f 19/143/34 21/144/34 23/145/34
f 23/145/34 25/146/34 27/147/34
f 27/147/34 29/148/34 31/66/34
f 31/66/34 33/149/34 35/150/34
f 35/150/34 37/151/34 39/152/34
f 39/152/34 41/153/34 43/154/34
f 43/154/34 45/155/34 47/67/34
f 47/67/34 49/156/34 51/157/34
f 51/157/34 53/158/34 55/159/34
f 55/159/34 57/160/34 59/161/34
f 59/161/34 61/162/34 63/68/34
f 63/68/34 3/135/34 7/137/34
f 7/137/34 11/139/34 15/141/34
f 15/141/34 19/143/34 23/145/34
f 23/145/34 27/147/34 31/66/34
f 31/66/34 35/150/34 39/152/34
f 39/152/34 43/154/34 47/67/34
f 47/67/34 51/157/34 55/159/34
f 55/159/34 59/161/34 63/68/34
f 63/68/34 7/137/34 15/141/34
f 15/141/34 23/145/34 31/66/34
f 31/66/34 39/152/34 47/67/34
f 47/67/34 55/159/34 63/68/34
f 63/68/34 15/141/34 31/66/34
f 73/69/9 137/69/9 138/70/9
f 58/58/31 56/56/31 124/56/31
f 14/14/31 12/12/31 102/12/31
f 32/32/31 30/30/31 111/30/31
f 50/50/31 48/48/31 120/48/31
f 6/6/31 4/4/31 97/4/31
f 24/24/31 22/22/31 107/22/31
f 42/42/31 40/40/31 116/40/31
f 60/60/31 58/58/31 125/58/31
f 16/16/31 14/14/31 103/14/31
f 34/34/31 32/32/31 112/32/31
f 52/52/31 50/50/31 121/50/31
f 8/8/31 6/6/31 99/6/31
f 26/26/31 24/24/31 108/24/31
f 44/44/31 42/42/31 117/42/31
f 62/62/31 60/60/31 126/60/31
f 18/18/31 16/16/31 104/16/31
f 36/36/31 34/34/31 113/34/31
f 54/54/31 52/52/31 122/52/31
f 10/10/31 8/8/31 100/8/31
f 28/28/31 26/26/31 109/26/31
f 46/46/31 44/44/31 118/44/31
f 64/64/31 62/62/31 127/62/31
f 20/20/31 18/18/31 105/18/31
f 38/38/31 36/36/31 114/36/31
f 56/56/31 54/54/31 123/54/31
f 12/12/31 10/10/31 101/10/31
f 30/30/31 28/28/31 110/28/31
f 48/48/31 46/46/31 119/46/31
f 4/4/31 2/1/31 98/1/31
f 2/71/31 64/64/31 128/64/31
f 22/22/31 20/20/31 106/20/31
f 65/72/31 66/76/31 97/73/31
f 67/75/31 99/78/31 97/73/31
f 67/75/31 68/80/31 100/77/31
f 69/79/31 101/82/31 100/77/31
f 69/79/31 70/84/31 102/81/31
f 71/83/31 103/86/31 102/81/31
f 71/83/31 72/87/31 104/85/31
f 73/69/31 105/89/31 104/85/31
f 73/69/31 74/70/31 106/88/31
f 75/90/31 107/92/31 106/88/31
f 75/90/31 76/94/31 108/91/31
f 77/93/31 109/96/31 108/91/31
f 77/93/31 78/98/31 110/95/31
f 79/97/31 111/100/31 110/95/31
f 79/97/31 80/102/31 112/99/31
f 81/101/31 113/104/31 112/99/31
f 81/101/31 82/106/31 114/103/31
f 83/105/31 115/108/31 114/103/31
f 83/105/31 84/110/31 116/107/31
f 85/109/31 117/112/31 116/107/31
f 85/109/31 86/114/31 118/111/31
f 87/113/31 119/116/31 118/111/31
f 87/113/31 88/118/31 120/115/31
f 89/117/31 121/120/31 120/115/31
f 89/117/31 90/122/31 122/119/31
f 91/121/31 123/124/31 122/119/31
f 91/121/31 92/126/31 124/123/31
f 93/125/31 125/128/31 124/123/31
f 93/125/31 94/130/31 126/127/31
f 95/129/31 127/132/31 126/127/31
f 95/129/31 96/133/31 128/131/31
f 65/72/31 98/74/31 128/131/31
f 131/75/31 130/76/31 129/72/31
f 129/72/31 160/133/31 159/129/31
f 159/129/31 158/130/31 157/125/31
f 157/125/31 156/126/31 155/121/31
f 155/121/31 154/122/31 153/117/31
f 153/117/31 152/118/31 151/113/31
f 151/113/31 150/114/31 149/109/31
f 149/109/31 148/110/31 147/105/31
f 147/105/31 146/106/31 145/101/31
f 145/101/31 144/102/31 143/97/31
f 143/97/31 142/98/31 141/93/31
f 141/93/31 140/94/31 139/90/31
f 139/90/31 138/70/31 137/69/31
f 137/69/31 136/87/31 135/83/31
f 135/83/31 134/84/31 133/79/31
f 133/79/31 132/80/31 131/75/31
f 131/75/31 129/72/31 159/129/31
f 159/129/31 157/125/31 155/121/31
f 155/121/31 153/117/31 151/113/31
f 151/113/31 149/109/31 147/105/31
f 147/105/31 145/101/31 143/97/31
f 143/97/31 141/93/31 139/90/31
f 139/90/31 137/69/31 135/83/31
f 135/83/31 133/79/31 131/75/31
f 131/75/31 159/129/31 155/121/31
f 155/121/31 151/113/31 147/105/31
f 147/105/31 143/97/31 139/90/31
f 139/90/31 135/83/31 131/75/31
f 131/75/31 155/121/31 147/105/31
f 87/113/23 151/113/23 152/118/23
f 74/70/10 138/70/10 139/90/10
f 88/118/24 152/118/24 153/117/24
f 75/90/11 139/90/11 140/94/11
f 89/117/25 153/117/25 154/122/25
f 76/94/12 140/94/12 141/93/12
f 90/122/26 154/122/26 155/121/26
f 77/93/13 141/93/13 142/98/13
f 91/121/27 155/121/27 156/126/27
f 78/98/14 142/98/14 143/97/14
f 65/72/1 129/72/1 130/76/1
f 92/126/28 156/126/28 157/125/28
f 79/97/15 143/97/15 144/102/15
f 66/76/2 130/76/2 131/75/2
f 93/125/29 157/125/29 158/130/29
f 80/102/16 144/102/16 145/101/16
f 67/75/3 131/75/3 132/80/3
f 94/130/30 158/130/30 159/129/30
f 81/101/17 145/101/17 146/106/17
f 68/80/4 132/80/4 133/79/4
f 95/129/32 159/129/32 160/133/32
f 82/106/18 146/106/18 147/105/18
f 69/79/5 133/79/5 134/84/5
f 96/133/33 160/133/33 129/72/33
f 83/105/19 147/105/19 148/110/19
f 70/84/6 134/84/6 135/83/6
f 84/110/20 148/110/20 149/109/20
f 71/83/7 135/83/7 136/87/7
f 85/109/21 149/109/21 150/114/21
f 72/87/8 136/87/8 137/69/8
f 86/114/22 150/114/22 151/113/22
